# xmcd CD database file
#
# Track frame offsets:
#	150
#	19858
#	50051
#	66596
#	93662
#	107418
#	125728
#	139062
#	163890
#	179691
#	202962
#	224173
#	250829
#	273978
#	287702
#	326989
#
# Disc length: 4594 seconds
#
# Revision: 2
# Processed by: cddbd v1.5.2PL0 Copyright (c) Steve Scherf et al.
# Submitted via: CDex 1.70beta2
#
DISCID=0d11f010
DTITLE=Best Jazz Piano Standards 100 Disc.5 - ミッドナイト・スタンダーズ
DYEAR=2006
DGENRE=Jazz
TTITLE0=あなたと夜と音楽と - リニー・ロスネス
TTITLE1=ドリーム - ビル・チャーラップ
TTITLE2=コルコヴァド（静かな夜）/ クレア・フィッシャー
TTITLE3=星影のステラ - ホレス・パーラン
TTITLE4=イン・ザ・スティル・オブ・ザ・ナイト - ジョージ・シアリング
TTITLE5=ポルカドッツ・アンド・ムーンビームス - バド・パウエル
TTITLE6=スター・アイズ - フィニアス・ニューボーンJr
TTITLE7=星へのきざはし - ノーマン・シモンズ
TTITLE8=ムーングロウ - ウィントン・ケリー
TTITLE9=星に願いを - ヒュー・ロウソン
TTITLE10=ソニー・ムーン・フォー・トゥ - ザ・スリー・サウンズ
TTITLE11=ブルース・イン・ザ・ナイト - ソニー・クラーク
TTITLE12=ダーン・ザット・ドリーム - ビル・エヴァンス
TTITLE13=ハウ・ハイ・ザ・ムーン - アート・テイタム
TTITLE14=バーモントの月 - マルグリュー・ミラー
TTITLE15=ティーチ・ミー・トゥナイト - エディ・ヒギンズ
EXTD=YEAR: 2006
EXTT0=
EXTT1=
EXTT2=
EXTT3=
EXTT4=
EXTT5=
EXTT6=
EXTT7=
EXTT8=
EXTT9=
EXTT10=
EXTT11=
EXTT12=
EXTT13=
EXTT14=
EXTT15=
PLAYORDER=
